<svg xmlns="http://www.w3.org/2000/svg" viewBox="0 0 31 31"><path d="M1 1h7v7h-7zM9 1h8v1h-2v1h-1v-1h-2v1h-3zM21 1h1v2h-1zM23 1h7v7h-7zM2 2v5h5v-5zM17 2h1v2h-1zM24 2v5h5v-5zM3 3h3v3h-3zM13 3h1v1h-1zM19 3h1v1h-1zM25 3h3v3h-3zM9 4h2v3h-1v-2h-1zM12 4h1v2h2v1h-1v1h-1v-1h-1zM15 4h2v1h-1v1h-1zM18 4h1v1h-1zM20 4h2v1h-1v1h1v3h-1v-2h-1zM17 5h1v3h1v1h-1v1h-1v1h-2v1h-1v-2h-1v-1h2v1h1v-2h1v-1h-1v-1h1zM9 7h1v1h1v-1h1v2h-3zM15 7h1v1h-1zM19 7h1v1h-1zM1 9h1v1h-1zM3 9h2v1h-1v6h-1v-1h-1v-1h1v-2h-2v-1h1v-1h1zM6 9h3v1h1v1h-1v2h-1v-1h-1v-1h1v-1h-2zM19 9h1v1h3v-1h1v1h2v1h-2v1h-2v1h-1v-2h-1v3h1v2h-1v-1h-1v-1h-1v-1h1v-1h-1v1h-2v-1h1v-1h2zM26 9h1v1h-1zM28 9h2v2h-1v2h1v1h-2v1h-2v-1h-1v-1h3v-1h-2v-1h2zM5 10h1v2h-1zM10 11h2v1h-1v1h3v2h-2v-1h-2zM6 12h1v1h-1zM24 12h1v1h-1zM1 13h1v1h-1zM7 13h1v1h-1zM15 13h1v2h-1zM5 14h1v1h-1zM9 14h1v1h-1zM17 14h1v2h-1zM22 14h2v1h2v1h1v1h-1v1h-1v2h-2v1h3v1h1v1h-1v1h1v1h2v1h-3v1h-1v-1h-2v1h-2v-3h-1v-1h1v-1h-3v1h-1v-1h-3v-1h-1v-1h1v-1h1v-3h1v2h1v2h-1v1h2v-4h2v1h-1v3h1v-1h1v-1h-1v-1h1v-2h1v2h1v1h1v-2h-1v-1h-1zM6 15h3v2h-1v-1h-2zM10 15h2v1h1v1h1v1h-1v1h-1v-2h-1v2h-1v1h-1v-2h1zM14 15h1v1h-1zM28 15h2v2h-1v-1h-1zM4 16h2v1h-1v1h-1v1h-1v-1h-2v-1h3zM7 17h1v1h-1zM28 17h1v1h-1zM6 18h1v1h-1zM26 18h1v1h-1zM29 18h1v1h-1zM1 19h1v1h-1zM7 19h1v1h-1zM27 19h1v1h1v1h-1v1h-1zM3 20h1v1h-1zM5 20h1v2h-2v-1h1zM8 20h1v1h-1zM10 20h2v2h-1v-1h-1zM2 21h1v1h-1zM7 21h1v1h-1zM9 21h1v1h1v1h-1v2h-1zM29 21h1v2h-1zM13 22h1v1h-1zM22 22v3h3v-3zM1 23h7v7h-7zM15 23h1v1h2v2h2v1h1v1h3v-1h1v1h1v1h1v1h-3v-1h-1v1h-6v-1h3v-1h-3v-1h-1v-2h-4v-1h3zM18 23h1v1h-1zM23 23h1v1h-1zM2 24v5h5v-5zM3 25h3v3h-3zM10 25h1v1h-1zM9 26h1v1h2v1h-1v1h-1v-1h-1zM12 26h2v2h1v2h-1v-1h-1v1h-2v-1h1v-1h1v-1h-1zM29 26h1v2h-1zM26 27h1v1h-1zM16 28h1v1h-1zM28 28h1v2h-1zM9 29h1v1h-1z"/></svg>